<?xml version="1.0" encoding="utf-8"?>
<!-- Generator: Adobe Illustrator 22.1.0, SVG Export Plug-In . SVG Version: 6.00 Build 0)  -->
<svg version="1.1" id="Layer_1" xmlns="http://www.w3.org/2000/svg" xmlns:xlink="http://www.w3.org/1999/xlink" x="0px" y="0px"
	 viewBox="0 0 519 192.1" style="enable-background:new 0 0 519 192.1;" xml:space="preserve">
<style type="text/css">
	.st0{fill:#ED1C24;}
	.st1{fill:#FFFFFF;}
</style>
<g>
	<path class="st0" d="M81.3,128.3v-2.6c3.6-0.7,6.1-1.5,7.6-2.5c1.5-1,2.2-2.4,2.2-4.2c0-1.5-0.6-3.7-1.7-6.7l-5.1-13.5H53.1
		l-4.3,11.6c-1.1,3-1.7,5.4-1.7,7.2c0,3.9,2.9,6.6,8.8,8.1v2.6H27.6v-2.6c3.4-0.6,6.4-2.4,8.9-5.3c2.5-3,5.1-7.8,7.5-14.6l25.2-67.5
		h12l26.7,70.2c2.4,6.2,4.8,10.6,7.2,13.1c2.3,2.5,5.4,3.8,9.2,4.1v2.6H81.3z M55.9,92.5h26.1L68.7,56.9L55.9,92.5z"/>
	<path class="st0" d="M210.3,40.5v24.6h-2.7c-2.6-6.7-6.6-12-12-16c-5.4-4-11.5-5.9-18.1-5.9c-8.9,0-15.8,3.8-20.6,11.4
		c-4.9,7.6-7.3,18.2-7.3,32c0,12.7,2.4,22.4,7.3,29c4.8,6.6,11.8,10,20.9,10c8.8,0,13.2-3.1,13.2-9.3v-13c0-6-3-9.6-9-10.8v-2.6
		h36.9v2.6c-3.2,0.9-5.5,2.3-6.7,4.2s-1.9,4.9-1.9,9v18.6c-8.8,4.2-20.1,6.3-34.1,6.3c-9.3,0-17.5-1.9-24.7-5.8s-12.8-9.3-16.9-16.4
		c-4.1-7.1-6.1-14.9-6.1-23.3c0-13.4,4.5-24.6,13.5-33.5c9-8.9,20.4-13.3,34.1-13.3c5.4,0,11.3,1.1,17.7,3.4
		c3.4,1.2,5.8,1.8,7.3,1.8c2.2,0,4.3-1,6.3-3H210.3z"/>
	<path class="st0" d="M290.7,43.1v-2.6h29.6v2.6c-8.5,0.5-12.7,5.3-12.7,14.4v71.9h-2.9l-63.1-71.1v53.6c0,4.7,0.9,8,2.6,9.8
		c1.7,1.9,5.2,3.2,10.3,4.1v2.6h-30.2v-2.6c4.1-0.6,7-2,8.8-4.2c1.8-2.2,2.7-5.6,2.7-10.1V51.8c-3.4-3.5-5.8-5.8-7.1-6.7
		c-1.3-1-2.8-1.6-4.6-2v-2.6h26.4l51.3,58.8V59.9c0-5.8-0.8-9.8-2.3-12C297.9,45.6,295,44,290.7,43.1z"/>
	<path class="st0" d="M424,84.5c0,13.4-4.5,24.5-13.5,33.1c-9,8.6-20.5,13-34.4,13c-13.9,0-25.3-4.3-34.3-13s-13.4-19.7-13.4-33.1
		c0-13.4,4.5-24.5,13.4-33.2c9-8.7,20.4-13,34.2-13c14,0,25.4,4.3,34.4,13C419.6,60,424,71,424,84.5z M403,85.1
		c0-13.6-2.3-24-6.8-31.1c-4.6-7.1-11.2-10.7-20-10.7c-8.7,0-15.3,3.6-19.8,10.7c-4.5,7.1-6.8,17.6-6.8,31.3
		c0,12.7,2.3,22.7,6.9,29.7c4.6,7.1,11.2,10.6,19.8,10.6c8.4,0,15-3.5,19.8-10.5C400.7,108,403,98,403,85.1z"/>
	<path class="st0" d="M487.5,38.3v23.1h-2.6c-1.7-5.1-4.6-9.4-8.8-12.9c-4.2-3.5-8.5-5.2-12.9-5.2c-4,0-7.4,1.1-10.2,3.4
		c-2.8,2.3-4.2,5.1-4.2,8.4c0,1.6,0.4,3.2,1.1,4.8s1.8,3.1,3.2,4.4c1.4,1.4,5.9,4.4,13.5,9.1c7.7,4.7,12.7,8,14.9,9.9
		s4.4,4.2,6.4,7.1c3.1,4.4,4.7,9.3,4.7,14.6c0,7.8-2.7,14-8.2,18.6c-5.5,4.6-12.1,6.9-20,6.9c-4.2,0-9.2-0.8-15-2.3
		c-3.1-0.8-5.2-1.2-6.4-1.2c-2.1,0-3.5,1-4.5,2.9h-2.6v-26.4h2.6c1.3,6.8,4.1,12.2,8.2,16.2c4.1,3.9,9.3,5.9,15.3,5.9
		c4.7,0,8.6-1.2,11.6-3.5c3.1-2.3,4.6-5.3,4.6-8.9c0-2.9-1-5.7-2.9-8.3c-2-2.6-7.2-6.4-15.7-11.5c-7.8-4.7-13-8.3-15.5-10.8
		c-2.5-2.5-4.4-5.4-5.7-8.5c-1.3-3.2-1.9-6.5-1.9-10c0-7.5,2.6-13.7,7.7-18.5c5.1-4.8,11.8-7.2,19.9-7.2c2.5,0,5.5,0.4,9,1.2
		c3.5,0.8,6,1.2,7.5,1.2c1.4,0,2.9-0.8,4.5-2.4H487.5z"/>
</g>
<rect x="323.9" y="21.7" class="st1" width="103.4" height="137"/>
<g>
	<path class="st0" d="M326.2,95.7c-0.4-1.4-0.7-2.8-1.1-4.2c-0.1-0.9-0.1-1.8-0.1-2.7c0-0.3-0.2-0.6-0.5-0.6c-0.3,0-0.6,0.2-0.6,0.5
		c-0.3,4.3,1.3,8.1,3.2,11.6c0.1,0.2,0.3,0.3,0.5,0.3c0.1,0,0.2,0,0.3-0.1c0.3-0.1,0.4-0.5,0.2-0.8
		C327.4,98.5,326.7,97.1,326.2,95.7z"/>
	<path class="st0" d="M347.7,56.6c0.1,0,0.3,0,0.4,0l3.4-1.7c0.3-0.1,0.4-0.5,0.3-0.8c-0.1-0.3-0.5-0.4-0.8-0.3l-2.4,1.2
		c-0.5,0.1-1.1,0.2-1.6,0.2c-0.4-0.1-0.7-0.1-1.1-0.2c0-0.1,0-0.1,0-0.2l2.3-1.7c0.2-0.2,0.3-0.5,0.1-0.8c-0.2-0.2-0.5-0.3-0.8-0.1
		l-2,1.5c-1.1,0.4-2.2,0.9-3.2,1.4c-1.8,0.4-3.3,1.4-4.6,3.5c-0.8,1-1.4,2.2-1.8,3.6c-0.2-0.3-0.5-0.4-0.8-0.2
		c-0.3,0.2-0.4,0.5-0.2,0.8l1.1,2c0.1,0.2,0.3,0.3,0.5,0.3c0.1,0,0.2,0,0.3-0.1c0.3-0.2,0.4-0.5,0.2-0.8l-0.3-0.5
		c0.1-0.4,0.3-0.8,0.4-1.1c0.1-0.3,0.2-0.6,0.3-0.8c0,0,0,0,0,0c0.6-1.6,1.3-2.9,2.2-3.9c1.3-1.1,3.1-1.3,6.7-1.5
		C346.8,56.4,347.3,56.5,347.7,56.6z"/>
	<path class="st0" d="M445,168.8c-0.4-0.2-0.7-0.4-1.1-0.6c-0.8-0.4-1.6-0.8-2.4-1.1c-2-0.9-3.9-1.9-6-2.6c-9-3.1-18.1-6-27.1-9
		c-1-0.4-1.9-1.3-2.8-2c0.2-0.1,0.4-0.2,0.6-0.3c-0.2-2.1-0.6-4.2-0.6-6.3c0-2,2.3-3.7,1-5.3c1-1.2,2-2.1,2.6-3.2
		c0.9-1.6,1.1-3.8,2.3-4.8c2.4-1.9,3.1-4.2,2.9-7.2c0.7-0.1,1.4-0.2,1.5-0.3c1-2.9,2.2-5.5,2.7-8.1c0.4-2.1,0.4-4.3,0.4-6.5
		c0.1,0.1,0.2,0.2,0.4,0.2c0,0,0,0,0.1,0c0.3,0,0.5-0.2,0.6-0.5l0.3-2.3c0-0.1,0-0.2-0.1-0.3c0.2-0.8,0.4-1.6,0.6-2.6l0.8-1.4
		c0.2-0.3,0.1-0.6-0.2-0.8c-0.3-0.2-0.6-0.1-0.8,0.2l-0.9,1.6c-0.9-2.8-0.3-4.9,2-6.5c0.6-0.5,1.1-1.2,1.5-1.9
		c0.5-0.8,0.9-1.6,1.3-2.4l1.4-0.3c0.2,0,0.3-0.1,0.4-0.3c0.1-0.1,0.1-0.3,0.1-0.4l-0.6-2.3c0.6-3,0.4-6-0.7-8.9
		c0.2-0.1,0.4-0.4,0.3-0.6l-0.2-0.8c0.1-0.2,0.1-0.4,0.1-0.6c-1-2.9-1-5.8,0.2-8.7c0.2-0.6-0.2-1.4-0.2-2.1c0-1.8,0-3.7,0-5.5
		c0,0,0.1,0,0.1,0c0.1,0.2,0.2,0.4,0.3,0.5c0.5,0.8,0.7,1.2,0.1,1.9c-0.2,0.2-0.2,0.6,0,0.8c0.1,0.1,0.3,0.2,0.4,0.2
		c0.1,0,0.3-0.1,0.4-0.2c1.3-1.3,0.6-2.5,0.1-3.3c-0.2-0.3-0.4-0.6-0.5-0.9c0-0.2-0.1-0.3-0.3-0.4c-0.2-0.7-0.4-1.4-0.7-2.1l0-0.1
		c0.3-0.2,0.6-0.4,1-0.6c-0.2-0.5-0.5-1.1-0.7-1.6l-0.5-2.2c-0.1-0.2-0.2-0.4-0.5-0.4l-0.1,0c-0.6-1.5-1.3-3.1-2.1-4.5
		c-1.7-3.3-3.8-6.4-5.7-9.5c-1.2-1.9-2.4-3.8-3.7-5.7c-0.8-1.3-1.4-3-2.6-3.9c-2-1.5-4.3-2.4-6.5-3.5c0.1-0.1,0.2-0.2,0.3-0.3
		c-2.2-1.7-4.5-3.5-7-5.5c-0.1,1.8,1.9,3.2-0.3,4.1c-0.1-0.1-0.1-0.3-0.2-0.4h0.1c0.3,0,0.6-0.3,0.6-0.6s-0.3-0.6-0.6-0.6h-0.6
		c-0.4-0.8-0.7-1.5-1-2.2c-2-0.3-3.8-0.5-5.7-0.8l-0.1-0.5c0-0.3-0.3-0.5-0.6-0.5c-0.3,0-0.5,0.3-0.5,0.6l0,0.2c-0.1,0-0.1,0-0.2,0
		c-0.4,0.8-0.8,1.5-1.3,2.5c-0.2-1-0.4-1.7-0.6-2.6c-1.1,0.7-2,1.2-2.9,1.9c-0.7-0.3-1.4-0.6-2.1-1c0.3,0.5,0.6,1.1,0.9,1.6
		c-0.1,0.1-0.3,0.2-0.4,0.3c0,0,0,0-0.1,0l-0.6-1.4c-0.1-0.3-0.5-0.4-0.7-0.3c-0.3,0.1-0.4,0.5-0.3,0.7l0.5,1.2c0,0.2,0,0.4,0,0.5
		c-0.4,0-0.7,0.1-1.1,0.1L379,26c-0.3-0.1-0.6,0.1-0.7,0.4c-0.1,0.3,0.1,0.5,0.4,0.6c0,0,0,0,0,0c0.6,0.1,1.2,0.3,1.8,0.4
		c0,0,0,0,0,0c0.1,0.1,0.2,0.1,0.3,0.1c0,0,0.1,0,0.1,0c1.1,0.3,2.1,0.5,3.2,0.8c0,0,0-0.1,0-0.1l0.8,0.2c0,0,0.1,0,0.1,0
		c0.3,0,0.5-0.2,0.5-0.4c0.1-0.3-0.1-0.6-0.4-0.7l-2.8-0.6c1.8,0.2,3.6,0.4,5.5,0.6c0.3,0.7,0.7,1.5,0.9,2c1.1,0.3,2.1,0.6,3.2,1
		c-1,0.7-1.6,1.2-2.1,1.6c-2-0.3-3.8-0.5-5.7-0.7l-1.3-0.4c-0.3-0.1-0.6,0.1-0.7,0.4c-0.1,0.3,0.1,0.6,0.4,0.7l0.8,0.3c0,0,0,0,0,0
		c-1,0.2-1.9-0.2-3-0.7c-0.6-0.3-1.3-0.5-2-0.7c-0.3-0.1-0.6,0.1-0.7,0.4c-0.1,0.3,0.1,0.6,0.4,0.7c0.6,0.1,1.2,0.4,1.8,0.6
		c0.5,0.2,1.1,0.5,1.7,0.6c0.8,0.6,1.5,1.2,2,2c0.7,1.7,0.5,3-0.8,4.7c-0.6,0.5-1.3,1-2,1.3c0.3,0.7,0.5,1.4,0.7,2
		c0.1,1,0.2,1.9,0.2,2.9c-0.3,2.3-2.1,4.3-5.8,7.2c-1.3-0.1-2.6-0.3-4.1-0.4c1.5-1.7,2.1-2.3,2-3.5c0-0.1,0.1-0.3,0.1-0.4
		c0.1-0.4,0.2-0.7,0.4-1.1c0.1-0.3,0-0.6-0.3-0.7c-0.2-0.1-0.4,0-0.6,0.1c0-0.1,0-0.1-0.1-0.2c0,0.2-0.1,0.4-0.1,0.6
		c-0.1,0.3-0.2,0.7-0.3,1c0,0.1,0,0.1,0,0.2c-0.9,2.2-2.3,3.2-4.1,3.7c-0.3,0-0.5,0-0.8-0.1l-2.5-0.3c-0.3,0-0.6,0.2-0.6,0.5
		c0,0.3,0.2,0.6,0.5,0.6l2.5,0.3c0,0,0,0,0,0c0,0,0,0,0,0c0.3,0,0.7,0,1,0.1c0.2,0,0.4,0,0.6,0c7,1.4,13.9,2.9,20.9,1.9
		c1.2,1,2.2,1.8,3.6,2.9c-0.7,0.5-1.4,0.9-2.2,1.4c0,0.1,0.1,0.5,0.2,1c-0.1,0.1-0.3,0.1-0.4,0.2c-0.2-0.1-0.4-0.2-0.6-0.3
		c-0.3-0.2-0.6-0.1-0.8,0.2c-0.2,0.3-0.1,0.6,0.2,0.8c0.5,0.3,1,0.5,1.4,0.6c0.5,0.4,1.1,0.6,1.6,0.6c0.9-0.1,1.8-0.9,3-1.7
		c-0.3,1.3-0.6,2.3-0.9,3.4l-0.8,0c-0.3,0-0.6,0.2-0.6,0.5c0,0.3,0.2,0.6,0.5,0.6l0.9,0.1c-0.1,0.6-0.1,1.3-0.2,2l-0.9,0.3
		c-0.3,0.1-0.5,0.4-0.4,0.7c0.1,0.2,0.3,0.4,0.5,0.4c0.1,0,0.1,0,0.2,0l0.8-0.2c0.1,0.1,0.3,0.2,0.4,0.3c-0.9,0.2-1.7,0.4-2.5,0.6
		c-0.2,0.8-0.3,1.5-0.5,2.2c2.8,0.7,5.4,1.3,7.9,2c0,0.3,0,0.5,0,0.8c-5.4,0.4-10.5,1.6-14.7,4.8c-2.3-0.2-4.4-0.3-6.8-0.5
		c0,0.1-0.1,0.2-0.1,0.3c-0.3,0-0.7,0-1.1,0c-0.3,0.1-0.5,0.4-0.4,0.7c0.1,0.3,0.4,0.5,0.7,0.4c0.1,0,0.3,0,0.4,0
		c-0.3,0.7-0.6,1.5-1,2.4c0.3,0.5,0.8,1.2,1.2,1.7c0,6,0,11.7,0,17.9c0.2,0.3,0.7,1,1.2,1.7c-0.3,2.7,0.6,5.7-2.5,8.1
		c-0.9-0.4-2.1-0.8-3.1-1.5c-1.9-1.2-3.8-2.5-5.6-3.8c-0.1-0.1-0.2-0.2-0.3-0.4c-0.2-0.2-0.5-0.3-0.8-0.1c-0.2,0.2-0.3,0.5-0.1,0.8
		c0,0,0,0.1,0.1,0.1c-0.1,0.1-0.1,0.1-0.2,0.2c0.7,1.4,1.3,2.7,2,4.1c1.9-0.3,5.2,1.3,5.6,2.8c0.1,0.3,0.1,0.6,0,0.9l-0.3,0.9
		c0,0-0.1,0.1-0.1,0.1c-0.3,0.2-0.8,0.2-1.4,0.2l-0.1-1.3c0-0.3-0.3-0.5-0.6-0.5c-0.3,0-0.5,0.3-0.5,0.6l0.1,1.2c-0.1,0-0.1,0-0.2,0
		c-1.2,0.8-2.8,1.9-4.6,3.1c-0.5-0.4-1-0.8-1.5-1.2c-1.1,0.6-2.1,1.2-3.3,1.9c0-0.2,0-0.3,0-0.5l0.5-1.6c0.1-0.3-0.1-0.6-0.4-0.7
		c-0.3-0.1-0.6,0.1-0.7,0.4l-0.5,1.5c-0.3,0.4-0.7,0.7-1,1c-0.8,0.3-1.7,0.6-2.6,1h-0.5c-0.3,0-0.6,0.3-0.6,0.6s0.3,0.6,0.6,0.6h0.7
		c0.1,0.1,0.3,0.3,0.5,0.4c-0.1,0.1-0.3,0.3-0.5,0.4c-1.5,0.3-2.7,0.6-4,0.9c0,0-0.1,0-0.1,0c-0.1,0-0.2,0-0.3,0.1
		c-0.3,0.1-0.5,0.1-0.8,0.2c0.1,0.2,0.4,0.7,0.5,0.9c1.5,0,2.6,0,3.8,0c0.9-0.6,1.9-1.2,2.9-1.8c0.6,0.7,1.1,1.4,1.5,1.9
		c-0.3,1.5-0.5,2.9-0.7,4.3c0,0,0,0,0,0l-0.2,0.5c-0.1,0.3,0.1,0.6,0.4,0.7c0.1,0,0.1,0,0.2,0c0.2,0,0.5-0.1,0.5-0.4l1.1-3.3
		c1.7-2.5,4.1-4,7.1-4.7c0.4-2.4,1.8-2.7,5.9-1.6c2.6-1.1,4.8-0.6,7,0.9c-0.9,1-1.5,1.8-2.2,2.6c0.4,0.5,0.7,0.9,1.1,1.4
		c0.1,0.2,0.2,0.5,0.2,0.7c0.1,0.2,0.3,0.4,0.5,0.4c0.1,0,0.1,0,0.2,0c0.3-0.1,0.4-0.4,0.3-0.7c-0.1-0.3-0.2-0.5-0.3-0.7
		c0.3-0.3,0.5-0.7,0.9-1.1c1.8,0.8,3.6,1.6,5.4,2.4l-0.1,0.7c0,0.3,0.2,0.6,0.5,0.6c0,0,0,0,0,0c0.3,0,0.5-0.2,0.6-0.5l0-0.5
		c0.2-0.1,0.4-0.3,0.7-0.5c0,0,0,0.1,0.1,0.1l0.7,2.6c0.1,0.3,0.3,0.4,0.5,0.4c0,0,0.1,0,0.1,0c0.3-0.1,0.5-0.4,0.4-0.7l-0.5-2
		c0-0.4,0-0.8,0-1.2c1,1.4,2.2,2.7,2.7,4.2c0.5,1.5,0.8,3.2,0.5,4.8c-0.1,0.9-1.2,2.1-2.2,0.6c0-0.3-0.1-0.5-0.4-0.6
		c-0.1,0-0.2,0-0.3,0c-0.3-0.2-0.5-0.5-0.8-1.1c0,0,0-0.1,0-0.1c-0.2-0.6-0.4-1.3-0.6-1.9c0.5,0.3,0.8,0.6,1.1,0.8
		c-0.4-0.8-0.9-1.6-1.4-2.6c0-0.4,0-0.8,0.1-1.1c0.1-0.3-0.2-0.6-0.5-0.6c-0.3,0-0.6,0.2-0.6,0.5c-0.1,0.8-0.1,1.6,0,2.4
		c-0.1,0.3-0.2,0.6-0.2,0.8c0.1,0,0.2,0,0.4,0c0.2,0.8,0.4,1.6,0.7,2.3c0.2,0.7,0.5,1.4,0.6,2.1c0,0.2,0.1,0.3,0.3,0.3
		c0.1,0.3,0.2,0.6,0.3,0.9c0.3,0.1,1,0.4,1.7,0.7c0.1,0.1,0.1,0.2,0.2,0.2c-0.4,0.6-1.1,1-1.8,1.4c-0.3,0.1-0.5,0.3-0.8,0.5
		c-0.1,0-0.2,0.1-0.3,0.1c0,0,0,0,0.1,0.1c-0.1,0.1-0.2,0.1-0.3,0.2c-0.2,0.2-0.3,0.5-0.1,0.8c0.1,0.1,0.3,0.2,0.4,0.2
		c0.1,0,0.2,0,0.3-0.1c0.3-0.3,0.7-0.5,1.1-0.7c0.5-0.3,1.1-0.7,1.6-1.1c0.4-0.2,0.9-0.5,1.3-0.7c-1.1,2.3-1.4,2.5-3.8,3.5
		c-1.2,0.5-2.3,1.2-3.4,1.8l-0.9-0.3c-0.3-0.1-0.6,0-0.7,0.3c-0.1,0.3,0,0.6,0.3,0.7c0,0,0,0,0,0c-0.5,0.2-1.2,0-2.1,0
		c0.9-1.2,1.5-1.9,2-2.6c-0.2-0.3-0.4-0.5-0.6-0.8c-1.4,0.8-2.9,1.5-4.3,2.3c0.4-1.2,0.8-2.4,1.2-3.6c0,0-0.1,0-0.1,0l0-0.1
		c0.1-0.3,0-0.6-0.3-0.7c-0.3-0.1-0.6,0-0.7,0.3l-1.1,2.3c-0.3,0.3-0.5,0.7-0.8,1.1c-0.2,0-0.3,0.1-0.4,0.2
		c-0.1,0.1-0.2,0.3-0.1,0.5c-0.4,0.5-0.7,1-1.1,1.5c-0.4-0.9-0.7-1.7-1.1-2.5l-0.5-2.4c-0.1-0.3-0.4-0.5-0.7-0.4
		c-0.3,0.1-0.5,0.4-0.4,0.7l0.1,0.6c-0.3,0.4-0.6,0.7-0.9,1c0.4,0.3,0.8,0.6,1.3,1l0.3,1.2v0c-1.1,0.5-2,0.9-3.1,1.4
		c-0.1,0.3-0.3,0.8-0.4,1.1c-1.6-0.2-2.9-0.3-4.5-0.5c0.5,0.9,0.9,1.6,1.3,2.3c1.1,0.1,2.1,0.2,3.2,0.4c0.5,0.9,0.9,1.8,1.4,2.8
		c-1.1-0.2-1.9-0.3-2.6-0.5c-0.8,2.9-1.6,3.3-4.8,2.3c-0.2-0.8-0.3-1.6-0.5-2.4l0,0c0,0,0,0,0.1,0c0.3,0,0.5-0.2,0.6-0.5
		c0-0.3-0.2-0.6-0.5-0.6l-0.4,0c-0.1-0.4-0.2-0.8-0.2-1.2c0.3-0.7,0.7-1.5,1-2.2c-0.1,0-0.1,0-0.2,0l0.2-0.2
		c0.2-0.2,0.2-0.6-0.1-0.8c-0.2-0.2-0.6-0.2-0.8,0.1l-0.9,1c-0.3,0-0.6,0-0.9,0.1l0-0.2c0-0.3-0.3-0.5-0.6-0.5
		c-0.3,0-0.5,0.3-0.5,0.6l0,0.2c-1.7,0.1-3.5,0.2-5.4,0.3c0,0,0,0,0.1,0.1c-0.1,0.1-0.3,0.2-0.3,0.3c-0.1,0.3,0.1,0.6,0.4,0.7
		l1.4,0.4c1.1,1.1,2.2,2.1,3.5,3.3c-2-0.1-3.7-0.2-5.3-0.3l-1.1-0.6c0.1,0,0.1,0,0.2-0.1c0.3-0.2,0.3-0.5,0.1-0.8
		c-0.4-0.5-0.8-0.7-1.2-0.8c0,0-0.1-0.1-0.1-0.1l2.3,0.6c0,0,0.1,0,0.1,0c0.2,0,0.5-0.2,0.5-0.4c0.1-0.3-0.1-0.6-0.4-0.7l-1.7-0.5
		c-0.3-0.3-0.6-0.5-0.7-0.6c-0.2-1.1-0.4-2-0.5-2.8l0-0.7c0-0.1-0.1-0.3-0.2-0.4c0,0,0,0,0,0c0,0,0,0,0,0c-0.1-0.1-0.3-0.2-0.4-0.2
		c-0.3,0-0.5,0.3-0.5,0.6l0,0.3c-0.1,0-0.1-0.1-0.2-0.1l-0.1,0c-0.3-0.2-0.6-0.4-1-0.6l0.1-0.7c0.1-0.3-0.2-0.6-0.5-0.6
		c-0.3-0.1-0.6,0.2-0.6,0.5l0,0.2c-0.3-0.2-0.7-0.4-1-0.6c-0.2,0.2-0.3,0.4-0.5,0.5c0.4,0.8,0.7,1.6,1.1,2.4l-0.1,0.8
		c-0.1,0.3,0.2,0.6,0.5,0.6c0,0,0.1,0,0.1,0c0.3,0,0.5-0.2,0.6-0.5l0.1-0.6c0.2-0.2,0.4-0.3,0.6-0.5l0.6,0.1c0,0,0.1,0,0.1,0
		c0,0,0.1,0,0.1,0c-0.1,0.4-0.2,0.8-0.3,1.2c-0.4,1.2-0.4,2.2,0.1,3.1c0,0-0.1,0-0.1,0c-0.3-0.1-0.6,0.2-0.6,0.5
		c0,0.3,0.2,0.6,0.5,0.6c0.1,0,0.2,0,0.2,0c0.2,0,0.3,0,0.5-0.1c0.1,0.1,0.1,0.2,0.3,0.3l0.9,0.4c4.2,4.2,8.5,8.3,12.7,12.5
		c0.7,0.7,1.1,1.8,1.7,2.7l0.1,0c0.3,0.1,0.6,0.1,0.9,0.2c0.1,0,0.1,0.1,0.2,0.1c-0.1,0.1-0.1,0.2-0.1,0.2c0,0,0,0-0.1,0
		c0,0.3,0,0.5,0,0.8c0.1,0,0.3,0,0.4-0.1c0,0,0,0,0,0c0,0.1,0.1,0.1,0.1,0.2c0,0.1,0,0.2,0,0.3c-0.2,0-0.4-0.1-0.6-0.1
		c0,0.3,0,0.5,0,0.8c0.2-0.2,0.4-0.4,0.6-0.7c0,0,0.1,0,0.1-0.1c0.1,0.1,0.3,0.2,0.5,0.3c0.5,0.2,1,0.2,1.5,0.3c0.2,0,0.4,0,0.6,0.1
		c0,0,0.1,0,0.1,0c0,0,0,0,0,0c0,0,0,0,0,0.1c-0.7,0.2-1.5,0.3-2.2,0.5c0.4,0,0.8,0,1.2,0c-0.1,0.7-0.3,1.3-0.4,2l-1,1
		c-0.2,0.2-0.2,0.6,0,0.8c0.1,0.1,0.3,0.2,0.4,0.2c0.1,0,0.3-0.1,0.4-0.2l0.1-0.1c0.6,0,1.5-0.1,1.9-0.1c1.3-2.3,2.5-4.4,3.6-6.4
		c1.3-0.5,2.4-1,3.4-1.4c-0.1,1.3-0.3,2.6-0.4,3.9h-0.6c-0.3,0-0.6,0.3-0.6,0.6s0.3,0.6,0.6,0.6h0.5c-0.1,0.9-0.2,1.9-0.3,2.8
		l-1.1,0.7c-0.3,0.2-0.3,0.5-0.2,0.8c0.1,0.2,0.3,0.3,0.5,0.3c0.1,0,0.2,0,0.3-0.1l1-0.6c2.5-0.4,5.3-0.8,8.4-1.3
		c0.3-0.4,0.8-1.1,1.1-1.5c1.6-0.2,3-0.4,4.4-0.6v0.7c0,0.3,0.3,0.6,0.6,0.6s0.6-0.3,0.6-0.6v-0.8c0.4,0,0.8-0.1,1.1-0.1v0.9
		c0,0.3,0.3,0.6,0.6,0.6s0.6-0.3,0.6-0.6v-0.5l0,0c0,0.3,0.3,0.5,0.6,0.5c0,0,0,0,0.1,0c0.3,0,0.5-0.3,0.5-0.6l-0.1-1
		c1.2-0.5,2.4-1,3.7-1.6c0.8,0.4,1.8,0.9,2.4,1.2c1.5-0.3,2.9-0.6,4.2-0.8l-0.1,0.5c0,0.3,0.2,0.6,0.5,0.6c0,0,0.1,0,0.1,0
		c0.3,0,0.5-0.2,0.6-0.5l0.1-0.8c1.2-0.2,2.3-0.5,3.5-0.7c0.6,0.6,1.2,1.4,2,2.2c0.9-1.3,1.6-2.3,2.4-3.4c0,0.3,0.1,0.5,0.1,0.8
		c1.3-0.3,2.5-0.5,3.8-0.8v0.9c0,0.3,0.3,0.6,0.6,0.6c0.3,0,0.6-0.3,0.6-0.6V167c1.1-0.2,2.3-0.3,3.4-0.4c0.1,0.3,0.3,0.4,0.5,0.4
		c0,0,0,0,0.1,0c0.3,0,0.5-0.3,0.5-0.5c0.4,0,0.8,0,1.1,0v0.5c0,0.3,0.3,0.6,0.6,0.6c0.3,0,0.6-0.3,0.6-0.6v-0.5
		c1.7,0.1,3.4,0.3,5.1,0.8c2.2,0.6,4.4,1.2,6.7,1.7c0.1,0.1,0.2,0.1,0.3,0.2c0.4,0.2,0.8,0.4,1.2,0.6c0.1,0,0.2,0.1,0.2,0.1
		c0.2,0,0.4-0.1,0.5-0.3C445.4,169.2,445.2,168.9,445,168.8z M382.2,116.9l-0.1,0.7c-0.4,0.7-0.7,1.2-1,1.8c-0.1,0-0.2,0-0.3,0
		c-1-0.6-1.9-1.1-3-1.8c-0.4,0.1-1.2,0.2-2.6,0.5c0.7-1.6,1.3-2.7,1.9-4.1C379,115,380.5,115.9,382.2,116.9z M385.3,120.9
		c-0.7-0.9-1.4-1.9-2.1-2.8l0.1-0.8c0,0,0.1,0,0.1-0.1c0.8,1.1,1.6,2.2,2.4,3.3C385.6,120.7,385.5,120.8,385.3,120.9z M374.9,168.5
		c-0.1,0-0.1-0.1-0.2-0.1c-0.2,0-0.4-0.1-0.6-0.1c-0.2,0-0.4,0-0.6-0.1c-0.1-0.2-0.1-0.3-0.2-0.5c-0.1,0.1-0.2,0.2-0.2,0.4
		c-0.1,0-0.2,0-0.2-0.1c-0.1,0-0.2-0.2-0.3-0.3l0,0c0.3,0,0.5,0,0.8,0c0,0,0,0,0,0.1c0,0,0,0,0-0.1
		C374.9,168,375.2,168.1,374.9,168.5z M385.3,147.2c0.6-0.3,1-0.6,1.6-0.9l0.9-0.3c-0.5,1.2-0.9,2.1-1.4,3.2
		C386,148.5,385.7,147.9,385.3,147.2z M408.8,117.6c-0.7-0.5-1.4-1.1-2.1-1.6c0.2-0.3,0.5-0.5,0.7-0.8c0.6,0.6,1.3,1.2,1.9,1.8
		C409.1,117.3,408.9,117.5,408.8,117.6z M423.6,57.2l0.2,0c0.2,0.9,0.4,1.9,0.6,2.8l-0.2,0.4c-0.1,0-0.2,0.1-0.3,0.1
		c-0.3-1.1-0.6-2.1-0.9-3.2C423.3,57.2,423.4,57.2,423.6,57.2z M424.1,90.3l0.3,1.2c0.1,0.7,0.2,1.5,0.4,2.2
		c-0.4,0.1-0.7,0.1-1.1,0.2c-0.2-1.1-0.4-2.3-0.6-3.4C423.4,90.4,423.7,90.4,424.1,90.3z M419,92.4c0.3,0,0.5,0,0.8,0
		c0,1.5,0,3,0,4.4c-0.2,0-0.3-0.1-0.5-0.1C419.2,95.2,419.1,93.8,419,92.4z M423.8,80.7l0.3,1.5c-1.8,0-2.7,1.1-3.2,2.8
		c-0.4,1.3-0.7,2.7-1,3.9C419.3,85.2,420.4,82.8,423.8,80.7z M414.8,48.7c0.4,1.4,0.9,2.8,1.3,4.1c-0.3,0-0.5,0.1-0.8,0.1
		c-0.4-1.3-0.8-2.7-1.2-4C414.4,48.8,414.6,48.8,414.8,48.7z M411.3,49.7c1.5,2.6,1.3,6-0.1,7.4c-0.7-2.9-1.4-5.6-2.1-8.6
		C410.1,47.7,410.7,48.7,411.3,49.7z M409.5,35.3c-0.6,0.9-1.1,1.7-1.7,2.6c-0.2-0.1-0.5-0.1-0.7-0.2c-0.4-1.5-0.7-2.9-1.1-4.4
		c0.1-0.1,0.2-0.1,0.3-0.2c0.4,0.7,0.8,1.3,1.2,2l-0.1,1.2c0,0.3,0.2,0.6,0.5,0.6c0,0,0,0,0,0c0.3,0,0.5-0.2,0.6-0.5l0.1-1.1
		c0.1-0.1,0.2-0.2,0.3-0.4C409.2,35.1,409.3,35.2,409.5,35.3z M399.2,29.8c0.2-0.2,0.4-0.4,0.6-0.6c1.2,1.4,2.5,2.7,3.7,4.1
		c-0.2,0.1-0.3,0.3-0.5,0.4c-1.1-1-2.1-2-3.2-2.9L399.2,29.8z M398.3,30.6l1.7,2.2c0.5,1.2,0.9,2.6,1.1,4.1c-2.1-2.5-4.1-4.9-6-7.1
		C396.5,29.6,397.5,29.9,398.3,30.6z M390.2,35.6c1.2,1.5,2.3,3.1,3.5,4.6c-0.1,0.1-0.3,0.2-0.4,0.3c-0.2-0.1-0.4-0.2-0.5-0.3
		c-0.5-1.1-1.2-2-2.4-2.4c-0.3-0.5-0.6-1-0.9-1.6C389.7,36,389.9,35.8,390.2,35.6z M385.6,42.4c-0.2,0.1-0.3,0.3-0.3,0.5
		c-0.2,0-0.5,0.1-0.5,0.4c-0.2,0.6-0.5,1.6-0.2,2.5c-0.1,0.3-0.2,0.6-0.3,0.8c-0.6-0.4-1.1-0.9-1.4-1.3c-0.1-0.9-0.2-1.9-0.2-2.8
		c0.1-0.2,0.2-0.4,0.3-0.6c0.2-0.4,0.4-0.7,0.6-1c1.7-2.2,2.1-3.9,1.2-6c0-0.6,0.1-1.2,0.1-1.8c0.1,0,0.8,0.1,1.3,0.1
		c2.4,2.8,2.1,5.4,0.3,8.1c-0.2,0.3-0.4,0.7-0.5,1L385.6,42.4z M381,52.8c1-1,1.9-2,2.8-3c0.7-0.8,1.3-1.8,1.9-2.6
		c0.1,0,0.1,0.1,0.2,0.1c0.1,0,0.2,0.1,0.3,0.1c0.2,0,0.4-0.1,0.5-0.3c0.1-0.3,0-0.6-0.2-0.8c-0.3-0.2-0.5-0.3-0.7-0.6
		c-0.1-0.4-0.1-0.9-0.2-1.3c0-0.3,0.1-0.5,0.2-0.9c0-0.1,0-0.1,0-0.2c0,0,0,0,0,0c0.1,0,0.2,0,0.3-0.1l0.8-0.5
		c0.1,0,0.2-0.1,0.4-0.1c0.2,1.5,0.4,3,0.5,4.5l-0.6,2c-0.1,0.3,0.1,0.6,0.4,0.7c0.1,0,0.1,0,0.2,0c0.2,0,0.5-0.2,0.5-0.4l0.4-1.4
		c0.1-0.1,0.1-0.1,0.2-0.2C388.4,52.5,384.9,54.8,381,52.8z M390.5,47.7c1.9-3.1,1-5.9-1.1-8.6c0.2-0.1,0.3-0.2,0.5-0.3
		c0,0,0.1,0,0.1,0c1.1,0.4,1.6,1.4,2,2.8c0,0.1,0.1,0.1,0.1,0.2C392.6,43.8,392.1,45.7,390.5,47.7z M397.9,47.6
		c-0.8-2.8-1.4-5.3-2.1-7.8c0.3-0.1,0.7-0.3,1-0.4c1.1,1.9,2.2,3.9,3.2,5.7C399.2,46.1,398.7,46.7,397.9,47.6z M399.5,37.5
		c0.1,0.1,0.2,0.1,0.2,0.2l0.7,1c0.1,0.2,0.3,0.3,0.5,0.3c0,0,0.1,0,0.1,0l0.2,0c1.3,1.1,2.6,2.2,3.9,3.3c-0.1,0.2-0.3,0.3-0.4,0.5
		C401.9,42.1,400.5,40.1,399.5,37.5z M394.4,81.8c1.1,0.3,2.2,0.5,3.3,0.8c-0.1,0.2-0.1,0.5-0.2,0.7c-1.1-0.2-2.2-0.5-3.3-0.7
		C394.3,82.3,394.3,82,394.4,81.8z M387.5,117c0.2-0.1,0.4-0.2,0.6-0.3c0.6,1.2,1.2,2.5,1.8,3.7c-0.3,0.1-0.5,0.2-0.8,0.3
		C388.6,119.5,388,118.3,387.5,117z M392.1,99.4l0.2,0c0,0,0,0,0,0c0.3,0,0.5-0.2,0.6-0.5c0-0.3-0.2-0.6-0.5-0.6l0,0h0.5
		c0.3,0,0.6-0.3,0.6-0.6s-0.3-0.6-0.6-0.6h-0.5c0-0.2,0-0.4,0-0.6c2.7-0.3,5.4-0.5,8.3-0.8c0.5,0.4,1.2,0.9,1.9,1.5
		c-0.6,0.9-1.2,1.8-1.7,2.8l-1.2-0.1c-0.3,0-0.6,0.2-0.6,0.5c0,0.3,0.2,0.6,0.5,0.6l0.6,0.1c-0.5,0.8-1,1.6-1.6,2.5l0,0
		c-0.3-0.1-0.6,0.2-0.6,0.5c0,0.2,0,0.3,0.1,0.4c-0.3,0.4-0.6,0.9-0.9,1.4c-0.9,0-2.5,0.1-3.5,0.2
		C391.2,103.9,391.7,101.7,392.1,99.4z M397.1,129.8l-1.2-2.3c-0.2-0.6-0.3-1.2-0.4-1.9c0.8,0.5,1.4,0.9,1.9,1.1
		c0.4,1,0.7,1.9,1.1,2.7c0.4,0.7,0.9,1.3,1.8,2.4C398.8,131.3,397.8,130.7,397.1,129.8z M403.3,81.8c0.1-0.4,0.1-0.8,0.2-1.2
		c1.2,0.2,2.4,0.5,3.6,0.7c-0.1,0.3-0.1,0.7-0.2,1C405.7,82.2,404.5,82,403.3,81.8z"/>
	<path class="st0" d="M341.2,115.2c0.1,1,0.2,2,0.2,2.9c0.9,0.1,1.6,0.1,2.3,0.4c0.4,0.2,0.8,0.3,1.2,0.5l0.4,1
		c0.1,0.2,0.3,0.3,0.5,0.3c0.1,0,0.1,0,0.2,0c0.2-0.1,0.3-0.3,0.3-0.5c0,0,0.1,0,0.1,0.1c-0.1-0.2-0.2-0.4-0.3-0.5l-0.3-0.8
		c-0.4-1-0.6-2-0.3-2.9l0.2-0.5c0.3-0.7,1-1.5,2-2.1c-0.6-0.8-1-1.4-1.4-2c-0.2,0.2-0.4,0.5-0.6,0.7c-0.1,0.2-0.1,0.4-0.2,0.6
		c0,0,0,0,0,0.1l-1.4,3.9c0,0,0,0,0,0.1c-1.3-1.3-2.2-2.2-3.2-3.1c0,0.1,0,0.2,0,0.3c-0.1-0.1-0.1-0.2-0.2-0.3c0,0,0.1-0.1,0.1-0.1
		c-0.5-0.7-1.1-1.3-1.5-2c-0.6-1.2-0.8-2.5-0.6-4.1c0-0.3-0.2-0.6-0.5-0.6c-0.3,0-0.6,0.2-0.6,0.5c-0.3,2,0.1,3.6,0.8,5
		c0.1,0.6,0.2,1.2,0.3,1.8l-1.1,2c-0.2,0.3-0.1,0.6,0.2,0.8c0.1,0,0.2,0.1,0.3,0.1c0.2,0,0.4-0.1,0.5-0.3l1.2-2.2
		C340.4,114.3,340.8,114.7,341.2,115.2z"/>
	<path class="st0" d="M339.4,40.3l1.1,0c0.5,0.5,1,0.9,1.5,1.3c0-0.6,0-0.9,0-1.1c0.8,0,1.5-0.1,2.2-0.1c0,0.1-0.1,0.2,0,0.3
		l0.1,0.3c0.2,0.8,0.4,1.7,0.5,2.5c-0.1,0.7-0.1,1.3-0.2,2c-0.1,0.4-0.3,0.8-0.6,1.3c-0.2,0.3-0.1,0.6,0.1,0.8
		c0.1,0.1,0.2,0.1,0.3,0.1c0.2,0,0.4-0.1,0.5-0.2c1.5-2.2,1-4.5,0.4-6.6l-0.1-0.3c0-0.2-0.2-0.3-0.3-0.4c0-0.3,0.1-0.7,0.1-1
		c0.5-0.6,0.7-1.4,0.7-2.5c0-0.1,0.1-0.3,0.1-0.4c0.3-0.1,0.6-0.3,0.9-0.4c0.1,0,0.2-0.1,0.2-0.1c0.3,0.3,0.7,0.5,1,0.8l-1.2-0.2
		c-0.3-0.1-0.6,0.2-0.6,0.5s0.2,0.6,0.5,0.6l0.2,0c0,0.1,0,0.1,0,0.2c0.4,0.1,0.9,0.1,1.4,0.2c0,0.3,0.1,0.5,0.1,0.8
		c0,0.3,0.3,0.5,0.6,0.5c0,0,0.1,0,0.1,0c0.3,0,0.5-0.3,0.5-0.6c0-0.2,0-0.3-0.1-0.5c0,0,0,0,0,0c0,0,0,0,0,0c0-0.3-0.1-0.6-0.1-0.9
		c-0.2-1.3-0.4-2.6-0.7-3.9c-0.1-0.3-0.2-0.5-0.4-0.6c-0.1-0.4-0.2-0.8-0.3-1.2c0.6-0.1,1.2,0.1,1.9,0.4c0.2,0.1,0.4,0.1,0.6,0.2
		c0.3,0.1,0.6-0.1,0.7-0.4c0.1-0.3-0.1-0.6-0.4-0.7c-0.1,0-0.3-0.1-0.4-0.1c0,0,0,0,0,0c0,0-0.1,0-0.1,0c0,0-0.1,0-0.1,0
		c-0.9-0.3-2-0.6-3-0.3c0,0,0,0,0,0c0,0,0,0,0,0c-0.4,0.1-0.7,0.4-1.1,0.7c-0.5,0.3-1,0.7-1.5,1c-0.1,0-0.3,0.1-0.4,0.1
		c-0.3,0.1-0.7,0.2-1,0.3c-0.3,0.1-0.4,0.4-0.3,0.7c0.1,0.2,0.3,0.4,0.5,0.4c0.1,0,0.1,0,0.2,0c0.3-0.1,0.6-0.2,0.9-0.3
		c0.3-0.1,0.6-0.2,0.8-0.3c0.7,0.2,1.4,0.4,2.1,0.5c0,0.2-0.1,0.4-0.1,0.6c-1,0.4-2,0.8-3.2,1.3c0.2,0.7,0.4,1.3,0.5,1.9
		c0,0.2,0,0.4-0.1,0.6c-0.6-0.1-1.3-0.1-2-0.2c0.2,0.5,0.3,1,0.4,1.4c-0.3,0-0.6,0.1-0.9,0.1c-0.4,0-0.8,0-1.3,0l-1.4,0
		c-0.3,0-0.6,0.3-0.6,0.6C338.8,40.1,339.1,40.3,339.4,40.3z"/>
	<path class="st0" d="M349.1,105.2c-0.7-1.1-1.6-2.1-2.6-2.8l-1-1.1c-0.2-0.2-0.6-0.2-0.8,0c-0.2,0.2-0.2,0.6,0,0.8l0.3,0.4
		c0.1,0.4,0.3,0.9,0.4,1.3c0.3,0,0.5,0,0.7-0.1l2.9,3.1c0.1,0.2,0.3,0.4,0.4,0.6l-0.6,0.9c-0.5,0.7-0.9,1.4-1.4,2.1c0,0,0,0,0.1,0
		l0,0.1c-0.2,0.3-0.1,0.6,0.2,0.8c0.1,0.1,0.2,0.1,0.3,0.1c0.2,0,0.4-0.1,0.5-0.3l0,0c0,0,0,0,0,0c0.5-0.8,1.2-1.6,1.5-2.5l0.7-1.2
		c0.1-0.2,0.1-0.5-0.1-0.7L349.1,105.2z"/>
	<path class="st0" d="M369.8,134.9C369.8,134.9,369.8,134.9,369.8,134.9c0.3,0,0.6-0.3,0.6-0.6c0-1,0.3-1,1.4-1.1
		c0.2,0,0.4,0,0.7-0.1c1.1-0.2,2.2-0.4,3.3-0.7c0.5-0.1,0.9-0.2,1.4-0.3c0.2,0,0.4-0.2,0.4-0.4l0.1-0.3c0.2-0.1,0.3-0.2,0.5-0.4
		c0.8,1.6,1.6,2.5,2.8,2.7c0.5,0.3,0.9,0.7,1.1,1.3c0.5-0.5,1-1,1.4-1.5c0.4-0.1,0.8-0.2,1.2-0.3c0.3-0.1,0.5-0.4,0.4-0.7
		c-0.1-0.3-0.4-0.5-0.7-0.4c-0.5,0.1-0.9,0.3-1.3,0.3c-1,0-2,0.1-2.8-0.3c-0.4-0.4-0.7-0.9-1.1-1.8c-0.1-0.2-0.3-0.3-0.5-0.3
		c-0.2-0.4-0.3-0.8-0.5-1.3l0.2-0.9c0.1-0.3-0.1-0.6-0.4-0.7c-0.1,0-0.2,0-0.3,0c0,0,0-0.1,0-0.1c0,0,0,0.1,0,0.1
		c-0.1,0.1-0.3,0.2-0.3,0.4l-0.4,2c-0.4,0.8-1,1.4-1.8,1.8c-0.9,0.2-1.8,0.4-2.7,0.6c-0.2,0-0.4,0-0.6,0.1c-0.7,0.1-1.7,0.1-2.1,0.9
		c-0.1,0-0.2,0-0.2,0.1c0,0.1,0.1,0.2,0.1,0.2c-0.1,0.3-0.2,0.6-0.2,1C369.3,134.7,369.5,134.9,369.8,134.9z"/>
	<path class="st0" d="M355.3,140.8c0.7,0.2,1.3,0.3,1.8,0.3c0.6,0,1.2-0.2,1.6-0.5c0.3-0.2,0.5-0.5,0.6-0.8c0.8-0.7,1.5-1.7,2.2-3.1
		c-0.8,0.2-1.3,0.7-1.9,1.3c0-0.1,0-0.2,0-0.3c0-0.3-0.3-0.5-0.6-0.5c-0.3,0-0.6,0.3-0.5,0.6c0,0.8-0.1,1.5-0.4,1.8
		c-0.1,0.1-0.3,0.2-0.5,0.3c-0.5,0.2-1.2,0.1-2.1-0.2c-0.2-0.1-0.5,0-0.6,0.2c0,0,0,0,0,0c0,0,0,0,0,0c0,0-0.1,0.1-0.1,0.1
		C354.8,140.4,355,140.7,355.3,140.8z"/>
	<path class="st0" d="M350,127.8c-0.2-0.1-0.4-0.1-0.5,0l-0.7,0.4c-0.8-0.1-1.5-0.2-2.2-0.3c-0.1-0.1-0.1-0.2-0.2-0.4
		c-0.2-0.3-0.5-0.3-0.8-0.1c-0.3,0.2-0.3,0.5-0.1,0.8c0.1,0.1,0.2,0.3,0.2,0.4c0.1,0.5,0.2,1.1,0.3,1.6c-0.6,0.5-1.2,0.9-1.9,1.6
		l-0.7,0.3l-0.1-0.1c0-0.2,0.1-0.5,0.1-0.7l1-2.3c0.1-0.3,0-0.6-0.3-0.7c-0.3-0.1-0.6,0-0.7,0.3l-1,2.2l-1.7-2.6
		c0,0-0.1-0.1-0.1-0.1c0-0.1-0.1-0.1-0.1-0.2c0,0-0.1,0-0.1,0.1c-0.2-0.1-0.3,0-0.5,0.1c-0.3,0.2-0.3,0.5-0.2,0.8l0.7,1
		c0.1,0.5,0.1,1,0.2,1.6c0.4,0.5,0.8,1,1.2,1.4c-0.1,0.1-0.2,0.3-0.2,0.4c0,0.2,0.1,0.4,0.3,0.5l1.5,0.8c0,0,0,0,0.1,0.1
		c0,0,0,0,0,0l0.1,0c0,0,0,0-0.1,0c1,1.2,2.1,2.4,3.1,3.6c0.1,0.2,0.1,0.5,0.1,0.7c0,0.3,0.3,0.5,0.6,0.5c0,0,0.1,0,0.1,0
		c0.3,0,0.5-0.3,0.5-0.6c-0.1-0.5-0.2-0.9-0.3-1.4c0-0.2-0.1-0.3-0.1-0.5c0.5-2.5,0.9-4.9,1.4-7.4l0.5-0.3c0,0,0,0,0,0l0.1,0.7
		c0.1,0.3,0.3,0.5,0.6,0.5c0,0,0.1,0,0.1,0c0.3-0.1,0.5-0.4,0.5-0.7l-0.3-1.6C350.3,128,350.2,127.9,350,127.8z M344.1,133.6
		c0.3-0.4,0.5-0.7,0.7-1l0.8-0.4c0.2,0.4,0.5,0.8,0.8,1.4c0,0.1,0,0.1,0,0.2c-0.4,0.1-0.9,0.2-1.3,0.3L344.1,133.6z"/>
	<path class="st0" d="M335.7,43.1c0.3,0.2,0.6,0.1,0.8-0.2l0.2-0.3l2.2,1.3c0.1,0.1,0.2,0.1,0.3,0.1c0,0,0,0,0.1,0
		c0.1,0,0.1,0.1,0.2,0.1c0-0.1,0.1-0.1,0.1-0.2c0,0,0.1-0.1,0.1-0.1c0.2-0.3,0.1-0.6-0.2-0.8l-0.6-0.4c-0.3-0.5-0.7-0.9-1.2-1.5
		c-0.2,0-0.7,0.1-1.1,0.2c-0.1,0-0.1,0-0.2,0c0,0-0.1,0-0.1,0c0,0-0.1,0-0.1,0c0,0,0,0,0,0c-0.1,0-0.1,0.1-0.1,0.2l-0.4,0.7
		C335.4,42.6,335.5,42.9,335.7,43.1z"/>
	<path class="st0" d="M371.5,36.8c-0.3,0.5-0.6,1.2-0.6,1.8c0,0.3,0.3,0.5,0.6,0.5c0,0,0,0,0.1,0c0.3,0,0.5-0.3,0.5-0.6
		c0-0.3,0.2-0.7,0.4-1.1c0.2-0.3,0.4-0.6,0.5-1c0.3-0.7,0.3-1.6-0.7-2.5c-0.2-0.2-0.6-0.2-0.8,0.1c-0.2,0.2-0.2,0.6,0.1,0.8
		c0.1,0.1,0.2,0.2,0.3,0.3C371.6,35.7,371.6,36.3,371.5,36.8C371.5,36.8,371.5,36.8,371.5,36.8z"/>
	<path class="st0" d="M341.1,49.5c0.1-0.3-0.1-0.6-0.4-0.7c-0.3-0.1-0.6,0.1-0.7,0.4l-0.3,1.1c-0.2,0.4-0.4,0.8-0.7,1.2l-0.3,0.1
		c-0.3,0.1-0.5,0.4-0.4,0.7c0.1,0.3,0.3,0.5,0.6,0.5c0,0,0.1,0,0.1,0l2.8-0.6c0.3-0.1,0.5-0.4,0.4-0.7c-0.1-0.3-0.4-0.5-0.7-0.4
		l-0.9,0.2c0,0,0,0,0,0L341.1,49.5z"/>
	<path class="st0" d="M330.1,45.3l0.7-0.4c0.1,0,0.1,0.1,0.2,0.1v0.5c0,0.3,0.3,0.6,0.6,0.6c0.3,0,0.6-0.3,0.6-0.6v-1.1
		c0.1-0.3,0.2-0.6,0.3-0.9c-0.1-0.1-0.3-0.3-0.4-0.4c-0.1,0.1-0.2,0.1-0.3,0.2c-0.2-0.1-0.3,0-0.5,0.1l-1.4,1
		c-0.1,0-0.1,0.1-0.2,0.1c0,0,0,0,0,0l-0.1,0.1c-0.3,0.2-0.3,0.5-0.1,0.8C329.5,45.4,329.9,45.5,330.1,45.3z"/>
	<path class="st0" d="M360.8,38.6c0,0.3,0.2,0.6,0.5,0.6l0.4,0.1c0,0,0,0.1,0,0.1c0.4,0,0.8,0,1.2,0.1l2.3,0.3c0,0,0.1,0,0.1,0
		c0.3,0,0.5-0.2,0.6-0.5c0-0.3-0.2-0.6-0.5-0.6l-3.9-0.6C361.1,38,360.9,38.2,360.8,38.6z"/>
	<path class="st0" d="M350,77.3l-1.9,1.4c-0.2,0.2-0.3,0.5-0.1,0.8c0.1,0.1,0.3,0.2,0.5,0.2c0.1,0,0.2,0,0.3-0.1l1.6-1.2
		c0,0,0.1,0,0.1,0l1.2,0.2c0.3,0.1,0.6-0.1,0.7-0.5c0.1-0.3-0.1-0.6-0.4-0.7l-1.5-0.3C350.2,77.2,350.1,77.2,350,77.3z"/>
	<path class="st0" d="M362.2,34.3c0.1,0.2,0.1,0.5,0.1,0.7c0.2,0,0.4-0.1,0.6-0.1l0.3,0.2c0.1,0.1,0.2,0.1,0.3,0.1
		c0.2,0,0.3-0.1,0.4-0.2c0.2-0.2,0.2-0.6-0.1-0.8l-0.8-0.6c0-0.1,0-0.1,0-0.2l1.5,0.1c0.3,0,0.6-0.2,0.6-0.5c0-0.3-0.2-0.6-0.5-0.6
		l-0.6-0.1c0-0.8,0.1-1.6,0.1-2.3l1.1-3.7c1.4-0.4,2.4-0.6,3.4-0.9c0.1,0.5,0.2,1,0.3,1.4c-0.2,1.6,0.1,2.5,0.8,3.3c0,0,0,0.1,0,0.1
		c0.1,0,0.1,0.1,0.2,0.1c0.6,0.5,1.4,0.9,2.3,1.4c0.5,0.2,0.9,0.5,1.3,0.7c0.8,0.6,1.2,1.2,1.5,1.8l-0.1,2.2
		c-0.3,0.8-0.9,1.6-1.7,2.6c-0.2,0.2-0.3,0.5-0.5,0.7c-1.6,1.5-2,3.2-1.3,5.2c0.1,0.2,0.3,0.4,0.5,0.4c0.1,0,0.1,0,0.2,0
		c0.3-0.1,0.4-0.4,0.3-0.7c-0.2-0.6-0.3-1.1-0.2-1.7c0.8-1,1.5-1.9,2.2-2.9c0.3-0.5,0.6-0.9,0.9-1.4c0.1-0.1,0.2-0.2,0.3-0.3
		c0.3-0.3,0.5-0.6,0.8-0.9c0.1-0.1,0.2-0.4,0.1-0.5c0-0.1-0.1-0.2-0.1-0.2c0.1-0.2,0.2-0.4,0.2-0.6c0.3-0.7-0.2-1.7-0.3-2.6
		c0.1-0.2,0.2-0.4,0.3-0.7c-0.8-0.4-1.7-0.9-2.5-1.3c-0.5-0.3-0.9-0.5-1.4-0.7c-1.5-0.7-2.5-1.2-2.7-2.3c-0.1-0.6,0.1-1.5,0.4-2.6
		c0.6,0.3,1.1,0.5,1.7,0.8c1.3-1.1,2.5-2.1,3.8-3.2c0,0.1,0.1,0.1,0.1,0.2l0.1,0.5c0.1,0.2,0.3,0.4,0.5,0.4c0.1,0,0.1,0,0.2,0
		c0.3-0.1,0.5-0.4,0.4-0.7l-0.2-0.6c0.2-0.4,0.4-0.8,0.6-1.3c-1.4-0.4-2.5-0.7-3.8-1l-0.6-0.3c-0.3-0.1-0.6,0-0.7,0.3
		c-0.1,0.3,0,0.6,0.3,0.7l1.4,0.6c0.1,0.3,0.2,0.5,0.3,0.8l-0.4,0.3c-1.8,0.1-3.3,0.2-4.8,0.3c-0.4-0.8-0.7-1.4-1-2
		c-0.7,0.7-1.3,1.6-1.9,1.7c-0.7,0-1.1,0.2-1.4,0.5c-0.2,0-0.4,0.2-0.4,0.4l-0.1,0.4c-0.1,0.2-0.2,0.5-0.3,0.8
		c-0.6,2.1-1.8,4.1-2.4,6.2c-0.1,0.2-0.1,0.4-0.1,0.6c-0.1,0.1-0.2,0.2-0.2,0.3l-0.2,0.7c-0.1,0.2,0,0.5,0.2,0.6L362.2,34.3z"/>
	<path class="st0" d="M368.5,41.1c0.2,0.4,0.3,0.8,0.4,1.1c0-0.4,0.1-0.8,0.1-1.2c0.2-0.1,0.3-0.3,0.3-0.5v-2.8c0-0.2,0-0.4,0.1-0.6
		c0,0-0.1,0.1-0.1,0.1c-0.1-0.2-0.3-0.3-0.5-0.3c-0.3,0-0.6,0.3-0.6,0.6v1.3c-0.1,0.4-0.1,0.8,0,1.2v0.6
		C368.1,40.9,368.3,41.1,368.5,41.1z"/>
	<path class="st0" d="M337.1,101.5c0.5,0.2,0.8,0.4,1.1,0.5c0.1,0.2,0.1,0.5,0.1,0.8c0,0.3,0.2,0.6,0.5,0.6c0,0,0,0,0,0
		c0.1,0,0.1,0,0.2,0c0,0.1-0.1,0.1-0.1,0.2c-0.1,0.1-0.3,0.1-0.5,0.1c-0.3,0.1-0.5,0.4-0.4,0.7c0,0.2,0.2,0.4,0.4,0.4
		c0,0,0,0.1-0.1,0.1c0.1,0,0.1-0.1,0.2-0.1c0,0,0.1,0,0.1,0c1-0.2,1.6-0.6,1.9-1.1c0.1,0,0.2-0.1,0.2-0.1c0-0.1,0-0.2,0-0.3
		c0.3-0.8,0.3-1.6,0.2-2.4c0-0.3,0-0.5,0-0.8c0-0.2,0-0.3,0-0.5c0.5-0.3,1-0.6,1.8-1.1c-0.2-0.3-0.4-0.5-0.6-0.8
		c0-0.2-0.1-0.3-0.3-0.4c-0.4-0.5-0.8-1.1-1.3-1.6c0.1-0.1,0.2-0.3,0.3-0.4c0.2-0.2,0.2-0.6-0.1-0.8c-0.2-0.2-0.6-0.2-0.8,0.1
		c-0.6,0.7-1.1,1.3-1.2,1.8c-0.4,1-0.1,1.8,1,3.3c0,0.1,0,0.2,0,0.3c0,0.3,0,0.6,0,0.9c0,0.1,0,0.1,0,0.2c-0.1,0.2-0.2,0.5-0.3,0.7
		c-0.2-0.1-0.3-0.2-0.5-0.3c-0.1-0.2-0.2-0.4-0.4-0.6c-0.3-0.3-0.6-0.4-1-0.5c-0.6-0.6-1-1.2-1.3-1.8c0-0.1-0.1-0.2-0.1-0.3
		c-0.3-0.9-0.2-1.9,0.2-2.8c0.2-0.4,0.4-0.7,0.6-1.1c0.3-0.5,0.7-0.9,1-1.4c0.4-3.4,0.7-6,1-8.7c-5.7,2.2-6.5,2.1-7.6-0.7
		c0.2,0,0.4-0.1,0.6-0.1l1.9,1.5c0.1,0.1,0.2,0.1,0.3,0.1c0,0,0.1,0,0.1,0l3.3-0.9c0.3-0.1,0.5-0.4,0.4-0.7
		c-0.1-0.3-0.4-0.5-0.7-0.4l-1.9,0.5c-0.6,0-1.2-0.1-1.7-0.1l-1.7-1.3c-1-2.9,0.2-5.7,1.1-8.6c-0.4-0.5-0.8-1-1.3-1.5l0-0.4
		c0-0.1,0-0.1,0-0.2c0.3-0.2,0.5-0.4,0.8-0.6c-0.2-0.4-0.4-0.7-0.6-1.1l0.2-0.5c0.1-0.3,0-0.6-0.3-0.8c-0.3-0.1-0.6,0-0.8,0.3
		l-0.4,0.8c-0.1,0.1-0.2,0.2-0.3,0.2c-0.1-0.1-0.2-0.3-0.4-0.4c-0.2-0.2-0.3-0.5-0.4-0.7c0-0.2,0-0.4,0-0.7c0-0.7,0-1.4-0.5-1.8
		c-0.1-0.1-0.2-0.2-0.3-0.2c-0.5-1.3-2.3-1.5-3.1-2.6l0,0c0.7-0.4,1.4-0.9,1.7-1.1c0.3,0.1,0.6,0.2,0.8,0.2c0.3,0.2,0.7,0.5,1.1,0.7
		c0.6,0.3,1.2,0.5,1.8,0.6c0.3,0.1,0.5,0.2,0.8,0.2c0.1,0,0.1,0,0.2,0c0.2,0,0.5-0.1,0.5-0.4c0.1-0.3-0.1-0.6-0.4-0.7
		c0,0-0.1,0-0.1,0c0,0,0,0,0-0.1c-2-0.5-3.5-1.4-4.5-2.5c-0.8-1.4-0.8-3.2-0.7-5.2l0-0.2c0-0.3-0.2-0.6-0.5-0.6
		c-0.3,0-0.6,0.2-0.6,0.5l0,0.2c0,1.2-0.1,2.4,0.1,3.6c-0.4,1.1-0.8,2.4-1.2,3.8l-0.8,1c-0.1,0.1-0.1,0.3-0.1,0.4
		c0,0.2,0.1,0.3,0.3,0.4c0,0,0,0,0,0c-0.2,0.5-0.3,1.1-0.5,1.6c0.9-0.1,1.7-0.2,2.6-0.3c0.7,0.5,1.4,0.9,2,1.4
		c0.1,0.1,0.1,0.4,0.1,0.7c-0.1,0-0.3-0.1-0.4-0.1c-0.5-0.2-1-0.4-1.6-0.4c-0.3-0.1-0.7-0.2-1-0.3c-0.2,0.1-0.3,0.3-0.4,0.4
		c-0.3,0.1-0.6,0.2-1,0.3c-0.3,0.1-0.4,0.4-0.3,0.7l0.2,0.6c-0.7,1.7-0.3,3.7,1.3,6.8c-0.1,0.3-0.2,0.7-0.2,1.2
		c-0.1,0.3,0.1,0.6,0.4,0.7c0,0,0.1,0,0.1,0c0.3,0,0.5-0.2,0.6-0.5c0.1-0.4,0.1-0.7,0.2-0.9c1-0.1,2-0.3,2.4,0.1
		c1,1,1.4,2.1,1.5,3.4l-0.3,3.4c-0.7-2.2-1.3-3.9-1.9-5.6c-4.7,1.7-4.4,7.2-2.5,12.5c0,0.2,0,0.3,0,0.5c0,0.4,0,0.7,0,1.1
		c0,0.2,0,0.4,0,0.5c0,0.3,0.3,0.6,0.6,0.6c0.3,0,0.6-0.3,0.6-0.6c0-0.2,0-0.4,0-0.5c0-0.4,0-0.8,0-1.2c0-0.2,0-0.4,0-0.6
		c0.2-0.8,0.4-1.7,0.5-2.5c-0.3-0.9-0.5-1.7-0.8-2.6c0,0,0-0.1,0-0.1c0.6,0.8,3.1,1.1,1.2,2.7c0.5-0.2,0.9-0.3,2.3-0.8
		c-3.4,5.9,0.4,9.5,2.7,13.7c1.7-1.2,1.1-2.4,0.3-3.7c-1-1.7-1.4-3.4-0.1-5.7c0.1,0.7,0.3,1.3,0.4,1.9c0,0,0,0,0,0
		c0,0.3,0,0.6,0,0.9c0,0.8,0,1.5,0.4,2.2c0.1,0.1,0.2,0.3,0.2,0.4c0.5,2.2,0.9,4.4,1.4,6.5c0,0.1,0,0.1-0.1,0.2
		c-0.5,0.2-0.9,0.4-1.2,0.5c-0.2-0.2-0.5-0.3-0.8-0.5c-0.3-0.1-0.6,0-0.7,0.3c-0.1,0.3,0,0.6,0.3,0.7c-0.2,0.1-0.4,0.2-0.5,0.2
		c-0.6-0.4-1-0.7-1.5-1l-0.4-0.4c-0.1-0.1-0.3-0.2-0.5-0.2c0,0,0,0,0,0c0,0,0,0,0,0c-0.1,0-0.2,0.1-0.3,0.1
		c-0.1,0.1-0.1,0.2-0.2,0.3c0,0,0,0-0.1,0.1c0,0,0.1,0.1,0.1,0.1c0,0.1,0.1,0.2,0.1,0.2l0,0c2,3.2,3.9,6.5,5.9,9.7
		c0.3-0.1,0.5-0.1,0.8-0.2c0.3-1,0.7-2,1-3c-0.1,0-0.2,0-0.4-0.1C337.1,107.3,337.1,104.5,337.1,101.5z M325.6,69.3l-0.1-0.5
		c0.1-0.1,0.2-0.2,0.3-0.4c0.4-0.1,0.7-0.1,1-0.1c0.3,0.1,0.6,0.1,0.9,0.2c0.7,0.2,1.3,0.8,1.8,1.4c0.4,1.7,0.7,3.3,1.1,5
		c-0.2,0.1-0.5,0.2-0.7,0.3C329.6,72.3,328.4,70.2,325.6,69.3z M339.5,102.3c0,0.1-0.1,0.1-0.1,0.2
		C339.4,102.4,339.4,102.4,339.5,102.3C339.4,102.3,339.4,102.3,339.5,102.3z M336.6,91.4c-0.5,1.3-1,2.7-1.6,4.1
		c-0.1-0.1-0.1-0.2-0.2-0.3c-0.2-0.3-0.2-0.8-0.2-1.4c0.4-0.9,0.9-1.8,1.3-2.7C336.2,91.2,336.4,91.3,336.6,91.4z"/>
	<path class="st0" d="M359.5,75.8c-2.2-0.9-4.2-1.3-6.4-0.5c-0.1,0.1-0.2,0.3-0.3,0.5c0.3,0.5,0.6,1.1,1,1.9c-1.3,1.1-2.6,2-3.7,3.2
		c-0.9,1-1.5,2.2-2.3,3.5l-0.5-0.1c-0.3,0-0.6,0.2-0.6,0.5c0,0.3,0.2,0.6,0.5,0.6l0.5,0.1c0.8,0.8,1.7,1.5,2.5,2.3
		c2.5-1.1,4.8-2.8,7.3-3.2c2.5-0.4,5.2,0.5,7.9,0.8c-0.1,0.6-0.2,1.1-0.2,1.6c-2,0.4-3.9,0.9-5.9,1.3l-3.5-0.1
		c-0.3,0-0.6,0.2-0.6,0.6c0,0.3,0.2,0.6,0.6,0.6l1.3,0c1.5,0.4,2.9,0.7,4.3,1c-0.8,0.1-1.5,0.2-2.2,0.2c-1.1-0.3-2.2-0.6-3.3-0.9
		c-0.4-0.3-0.7-0.6-1.1-1c-0.2-0.2-0.6-0.3-0.8-0.1c-0.2,0.2-0.3,0.6-0.1,0.8c1.5,1.8,3.3,2.3,5.1,2.3c0.4,0,0.8,0,1.2-0.1
		c1.9-0.1,3.8-0.4,5.6-0.9c1.3-0.4,2.6-0.9,3.8-1.4c1.6-0.6,2.3-1.7,2.8-2.9l0.6,0.1c0,0,0.1,0,0.1,0c0.3,0,0.5-0.2,0.6-0.5
		c0.1-0.3-0.2-0.6-0.5-0.6l-0.4-0.1c0.3-1.4,0.5-2.9,1.2-4.1C369.1,79.3,364.2,77.7,359.5,75.8z M366.5,83
		c-4.3-1.7-8.1-2.3-13.8,1.6C354.8,79.3,361.6,78.7,366.5,83z"/>
	<path class="st0" d="M343.8,65.1l1.7-2.4c0.2-0.3,0.1-0.6-0.1-0.8c-0.3-0.2-0.6-0.1-0.8,0.1l-1.1,1.6c-1.8,1.3-2.6,3.3-2.9,5.4
		c-1,0.5-1.7,0.9-2.7,1.4c-0.2-0.5-0.4-1.1-0.6-1.6c0-0.4,0-0.9,0-1.4c0-0.2,0-0.4,0-0.6c0-0.3-0.3-0.6-0.6-0.6c0,0,0,0,0,0
		c-0.3,0-0.6,0.3-0.6,0.6c0,0.2,0,0.4,0,0.6c0,0.9,0,1.9,0.2,2.8c0.2,2.6,1.4,5.2,0.5,7.7c-0.3,0.4-0.7,0.6-1.3,0.7
		c-0.3,0-0.5,0.3-0.5,0.6c0,0.3,0.3,0.5,0.6,0.5c0,0,0,0,0.1,0c1.7-0.2,2.4-1.3,2.7-2.4c0.3-0.2,0.5-0.4,0.8-0.5
		c0.1,0,0.2-0.1,0.3-0.1l0,0.3c0,0.3,0.3,0.5,0.6,0.5c0.3,0,0.5-0.3,0.5-0.6l-0.1-0.8c2-1.4,2.8-3.5,2.9-5.8c0,0,0,0,0,0
		c0-0.1,0-0.2,0-0.2c0,0,0,0,0,0C343.4,68.3,343.3,66.6,343.8,65.1z"/>
	<path class="st0" d="M343.4,134.6C343.4,134.6,343.5,134.6,343.4,134.6C343.5,134.6,343.5,134.6,343.4,134.6
		C343.5,134.6,343.4,134.6,343.4,134.6z"/>
	<path class="st0" d="M351.1,36.9c1.3-2.6,1.5-6.1,5.4-6.6c-0.3,0.4-0.6,0.8-1.1,1.4c0.8,0.2,1.4,0.3,1.6,0.4c1-1.1,1.9-2.1,2.8-3.2
		l1.2-0.5c0.3-0.1,0.4-0.4,0.3-0.7c-0.1-0.3-0.4-0.4-0.7-0.3l-2.6,1.1c-0.7-0.4-1.3-0.7-2-1.1c0-0.2-0.2-0.5-0.4-0.5l-1.1-0.3
		c-0.2-0.1-0.4-0.2-0.6-0.3c0,0.1,0.1,0.1,0.1,0.2l-0.4-0.1c-0.3-0.1-0.6,0.1-0.7,0.4c-0.1,0.3,0.1,0.6,0.4,0.7l1.2,0.3
		c0.5,1.8-0.1,2.9-2.2,4.5C350.8,33.4,350,34.8,351.1,36.9z"/>
	<path class="st0" d="M341,113.1c0,0,0-0.1,0-0.1C341,113,341,113,341,113.1C341,113,341,113,341,113.1C341,113,341,113.1,341,113.1
		z"/>
	<path class="st0" d="M377.8,41.6c1-0.8,1.6-1.9,1.8-3.1c0.4-1.4,0-3-1.1-4.9c-0.2-0.3-0.5-0.4-0.8-0.2c0,0,0,0-0.1,0.1
		c-0.1-0.1-0.1-0.1-0.2-0.2c0,0.1,0.1,0.2,0.1,0.3c-0.1,0.2-0.2,0.4,0,0.6c0.2,0.4,0.4,0.8,0.6,1.2c0.4,2.1-0.2,3.7-1.4,5.2
		c-0.5,0.5-1.2,0.9-2,1.5c-0.2,0.1-0.3,0.3-0.2,0.5l0,0.5c-0.4,0.7-0.6,1.6-0.8,2.4c-0.1,0.3,0.6,0.8,0.9,1.2
		c0.1,0.2,0.1,0.4,0.2,0.7l0.1,0.9c0,0.3,0.3,0.5,0.6,0.5c0,0,0,0,0,0c0.3,0,0.5-0.3,0.5-0.6l-0.1-1.2c0.3-1.3,0.5-2.5-0.2-3.9l0,0
		C376.4,42.5,377.1,42.1,377.8,41.6z"/>
	<path class="st0" d="M365.2,46.6c0-0.1,0.1-0.2,0.1-0.4c0.1-0.1,0.2-0.2,0.2-0.3l0.4-2.1c0.1-0.3-0.1-0.6-0.4-0.7
		c-0.3-0.1-0.6,0.1-0.7,0.4l-0.3,1.4c-0.1,0-0.1,0.1-0.2,0.2l-0.4-0.6c-0.2-0.6-0.4-1.2-0.7-2c-0.5,0-1,0-1.5,0l-4.2-0.5
		c-0.3,0-0.6,0.2-0.6,0.5c0,0.3,0.2,0.6,0.5,0.6l2.3,0.3c1.2,0.7,2.3,1.3,3.5,2l0.5,0.8c0.1,0.2,0.3,0.3,0.5,0.3c0,0,0.1,0,0.1,0
		l0.6-0.1C364.9,46.4,365.1,46.5,365.2,46.6z"/>
	<path class="st0" d="M331.5,54C331.5,54,331.5,54,331.5,54c0,0.4,0,0.7,0,1c0,0.3,0.3,0.5,0.6,0.5c0,0,0,0,0,0
		c0.3,0,0.6-0.3,0.5-0.6c0-0.2,0-0.5,0-0.7c0.3-0.5,0.5-1.1,0.8-1.6l0.1-0.1l0,0c0,0,0.1-0.1,0.1-0.1l0.1-0.1
		c0.9-0.8,1.8-1.5,2.7-2.3c-0.1-0.1-0.3-0.2-0.4-0.4l0.4-0.4c0.2-0.2,0.2-0.6-0.1-0.8c-0.2-0.2-0.6-0.2-0.8,0.1l-2.8,3.2
		c-0.5-0.6-1-1.2-1.5-1.9c-0.7,0-1.5,0-2.4,0c0,0.9,0,1.6,0,2.6C331.4,50.9,331,52.9,331.5,54z"/>
	<path class="st0" d="M346.7,119.9C346.7,119.9,346.7,119.9,346.7,119.9c0-0.1-0.1-0.1-0.1-0.1C346.6,119.8,346.6,119.9,346.7,119.9
		C346.6,119.9,346.7,119.9,346.7,119.9z"/>
	<path class="st0" d="M346.4,121.9c1.1-0.6,2.3-1.1,4-2c-1.7,0-2.7,0-3.8,0c-0.3,0.5-0.5,1.1-0.8,1.6
		C346.1,121.6,346.2,121.8,346.4,121.9z"/>
	<path class="st0" d="M382.2,23.1l1.7,0.1c0,0,0,0,0,0c0.3,0,0.5-0.2,0.6-0.5c0-0.3-0.2-0.6-0.5-0.6l-5.1-0.3
		c-0.3,0-0.6,0.2-0.6,0.5c0,0.3,0.2,0.6,0.5,0.6l0.8,0c0.5,0.1,1.1,0.2,1.6,0.3l-0.1,0.1c0.1,0,0.1,0,0.2,0.1c0,0,0-0.1-0.1-0.1
		C381.5,23.2,381.8,23.1,382.2,23.1z"/>
</g>
</svg>
